<?xml version="1.0" standalone="no"?>
<svg xmlns="http://www.w3.org/2000/svg" viewBox="0 0 71 70" width="71" height="70"><g fill="#9B2226" color="#9B2226" transform="translate(13.016 0) scale(0.8148149) "><svg width="54.0" height="54.0" x="0.0" y="0.0" viewBox="0 0 54 54"><path fill="currentColor" fill-rule="evenodd" d="M14.31 12.015c.81-.09 1.08.27 1.215.54-.81.045-1.53-.045-1.98-.36.18-.045.45-.135.765-.18M27 0c7.47 0 14.22 3.015 19.08 7.92C50.985 12.78 54 19.53 54 27c0 7.47-3.015 14.22-7.92 19.08C41.22 50.985 34.47 54 27 54c-7.47 0-14.22-3.015-19.08-7.92C3.015 41.22 0 34.47 0 27c0-3.06.54-5.985 1.485-8.73.27-.72.54-1.395.81-2.07.045-.09.135-.27.36-.045.36.36.855.405 1.26.135-.27-.045-.63-.225-.9-.495-.315-.27-.45-.63-.495-.9-.045.09-1.575-.45-1.395-1.98 1.62 1.035 1.935-.495 3.285-.63-1.395-.54-1.17-2.925-1.17-2.925s1.035 1.35 2.61 1.44c-.63-.9.225-1.665.225-1.665s.315.45.81.765c.855.495 2.205.54 3.51.54.405 0 .855-.045 1.26-.045h.225a13.18 13.18 0 0 1 1.89 0 2.906 2.906 0 0 1 2.52 1.845s0 .09.045.18l1.08-.135c.72-.045 1.485-.135 2.205-.18 1.035-.045 1.845.36 2.43.9.63.54.855 1.35.945 1.755-.495-.27-2.205-.36-3.69.18-1.89.72-3.15 2.025-3.42 2.34-.45.54-.855 1.035-1.215 1.62-.27.45-.54.9-.765 1.395a14.813 14.813 0 0 0-1.575 6.3v.315c0 4.095 1.665 7.785 4.32 10.44a14.723 14.723 0 0 0 10.44 4.32c4.095 0 7.785-1.665 10.44-4.32a14.726 14.726 0 0 0 4.32-10.44c0-4.095-1.665-7.785-4.32-10.44a14.725 14.725 0 0 0-10.44-4.32c-1.26 0-2.475.135-3.645.45-.09 0-.135.045-.225.045a3.839 3.839 0 0 0-1.44-1.17c-.315-.18-.495-.225-.72-.315-.36-.09-.765-.18-1.125-.18.135-.045.225-.09.36-.135 2.16-.9 4.455-1.35 6.795-1.35 2.385 0 4.635.45 6.795 1.35 2.07.855 3.915 2.115 5.535 3.735 1.62 1.62 2.88 3.465 3.735 5.535.9 2.16 1.35 4.41 1.35 6.795s-.45 4.635-1.35 6.795c-.855 2.07-2.115 3.915-3.735 5.535-1.62 1.62-3.465 2.88-5.535 3.735-2.16.9-4.455 1.35-6.795 1.35-2.385 0-4.635-.45-6.795-1.35-.315-.09-.63-.27-.945-.405-.36-.135-1.125-.495-1.35.09-.225.54.27.99.63 1.17.36.18.72.36 1.08.495 2.295.99 4.77 1.485 7.335 1.485 2.565 0 4.995-.495 7.335-1.485 2.25-.945 4.23-2.295 5.985-4.05 1.755-1.71 3.105-3.735 4.05-5.985.99-2.34 1.485-4.77 1.485-7.335 0-2.565-.495-4.995-1.485-7.335-.945-2.25-2.295-4.23-4.05-5.985-1.71-1.755-3.735-3.105-5.985-4.05A18.588 18.588 0 0 0 27.045 8.1c-2.565 0-4.995.495-7.335 1.485-.99.405-1.935.9-2.835 1.485l-.09-.09a3.64 3.64 0 0 0-.945-.9 20.833 20.833 0 0 1 3.285-1.755A20.332 20.332 0 0 1 27 6.75c2.745 0 5.4.54 7.875 1.575a20.886 20.886 0 0 1 6.435 4.365c1.89 1.845 3.33 4.005 4.365 6.435A20.332 20.332 0 0 1 47.25 27c0 2.745-.54 5.4-1.575 7.875a20.878 20.878 0 0 1-4.365 6.435c-1.845 1.89-4.005 3.33-6.435 4.365A20.332 20.332 0 0 1 27 47.25c-2.745 0-5.4-.54-7.74-1.665-.45-.18-.9-.36-1.305-.585-.315-.135-.99-.45-1.26.045s.27 1.035.585 1.215c.45.225.945.45 1.44.675a21.86 21.86 0 0 0 8.46 1.71c2.925 0 5.805-.585 8.46-1.71a21.59 21.59 0 0 0 6.885-4.635 21.586 21.586 0 0 0 4.635-6.885 21.86 21.86 0 0 0 1.71-8.46c0-2.925-.585-5.805-1.71-8.46a21.58 21.58 0 0 0-4.635-6.885 21.59 21.59 0 0 0-6.885-4.635 21.857 21.857 0 0 0-8.46-1.71c-2.925 0-5.805.585-8.46 1.71-1.53.63-2.97 1.44-4.32 2.43-.405-.09-1.08-.18-2.07-.135a22.911 22.911 0 0 1 14.805-5.4c12.735 0 23.085 10.35 23.085 23.085 0 6.39-2.61 12.15-6.795 16.335-4.185 4.185-9.945 6.795-16.335 6.795-3.78 0-7.38-.9-10.575-2.565-.36-.18-1.08-.405-1.35.135-.27.495.225.9.54 1.08.585.315 1.17.585 1.8.855 3.015 1.305 6.21 1.935 9.54 1.935 3.285 0 6.525-.675 9.54-1.935a24.796 24.796 0 0 0 7.785-5.265c2.25-2.25 4.05-4.86 5.265-7.785 1.305-3.015 1.935-6.255 1.935-9.54 0-3.285-.675-6.525-1.935-9.54a24.796 24.796 0 0 0-5.265-7.785c-2.25-2.25-4.86-4.05-7.785-5.265-3.015-1.305-6.21-1.935-9.54-1.935-3.285 0-6.525.675-9.54 1.935-2.835 1.17-5.355 2.88-7.56 4.995-1.935-.045-2.7-.54-2.79-.63.09-.09.18-.225.27-.315C12.33 3.24 19.26 0 27 0zm0 19.62l1.71 5.175h5.445l-4.41 3.24 1.665 5.22L27 30.06l-4.41 3.195 1.665-5.22-4.41-3.24h5.445L27 19.62z"></path></svg></g><path fill="#005F73" fill-rule="nonzero" d="M2.81 16.97L0.10 16.97Q0 16.97 0 16.85L0 16.85L0.05 0.36Q0.05 0.26 0.14 0.26L0.14 0.26L4.99 0.26Q6.29 0.26 7.38 0.90Q8.47 1.54 9.12 2.60Q9.77 3.67 9.77 5.02L9.77 5.02Q9.77 5.90 9.50 6.61Q9.24 7.32 8.88 7.81Q8.52 8.30 8.23 8.54L8.23 8.54Q9.53 9.98 9.53 11.93L9.53 11.93L9.55 16.85Q9.55 16.97 9.43 16.97L9.43 16.97L6.72 16.97Q6.62 16.97 6.62 16.90L6.62 16.90L6.62 11.93Q6.62 11.06 6.01 10.43Q5.40 9.79 4.51 9.79L4.51 9.79L2.93 9.79L2.90 16.85Q2.90 16.97 2.81 16.97L2.81 16.97ZM2.93 3.14L2.93 6.91L4.99 6.91Q5.74 6.91 6.31 6.36Q6.89 5.81 6.89 5.02L6.89 5.02Q6.89 4.25 6.32 3.70Q5.76 3.14 4.99 3.14L4.99 3.14L2.93 3.14ZM15.89 17.21L15.89 17.21Q14.59 17.21 13.52 16.55Q12.46 15.89 11.81 14.80Q11.16 13.70 11.16 12.38L11.16 12.38L11.18 4.78Q11.18 3.46 11.82 2.38Q12.46 1.30 13.54 0.65Q14.62 0 15.89 0L15.89 0Q17.18 0 18.24 0.65Q19.30 1.30 19.93 2.38Q20.57 3.46 20.57 4.78L20.57 4.78L20.59 12.38Q20.59 13.70 19.96 14.80Q19.32 15.89 18.25 16.55Q17.18 17.21 15.89 17.21ZM15.89 14.30L15.89 14.30Q16.61 14.30 17.15 13.72Q17.69 13.13 17.69 12.38L17.69 12.38L17.66 4.78Q17.66 3.98 17.16 3.43Q16.66 2.88 15.89 2.88L15.89 2.88Q15.14 2.88 14.62 3.42Q14.09 3.96 14.09 4.78L14.09 4.78L14.09 12.38Q14.09 13.18 14.62 13.74Q15.14 14.30 15.89 14.30ZM27.22 16.97L24.50 16.97Q24.41 16.97 24.41 16.85L24.41 16.85L24.41 3.17L21.29 3.17Q21.17 3.17 21.17 3.05L21.17 3.05L21.19 0.36Q21.19 0.26 21.29 0.26L21.29 0.26L30.41 0.26Q30.53 0.26 30.53 0.36L30.53 0.36L30.53 3.05Q30.53 3.17 30.43 3.17L30.43 3.17L27.29 3.17L27.31 16.85Q27.31 16.97 27.22 16.97L27.22 16.97ZM30.02 16.85L30.02 16.85L33 0.36Q33.02 0.26 33.12 0.26L33.12 0.26L36.60 0.26Q36.70 0.26 36.72 0.36L36.72 0.36L39.58 16.85Q39.60 16.97 39.48 16.97L39.48 16.97L36.82 16.97Q36.72 16.97 36.70 16.85L36.70 16.85L36.43 15.10L33.17 15.10L32.90 16.85Q32.88 16.97 32.78 16.97L32.78 16.97L30.12 16.97Q30.02 16.97 30.02 16.85ZM34.73 5.78L33.65 12.53L35.95 12.53L34.97 5.78L34.82 4.90L34.73 5.78ZM45.05 16.97L42.34 16.97Q42.24 16.97 42.24 16.85L42.24 16.85L42.24 3.17L39.12 3.17Q39 3.17 39 3.05L39 3.05L39.02 0.36Q39.02 0.26 39.12 0.26L39.12 0.26L48.24 0.26Q48.36 0.26 48.36 0.36L48.36 0.36L48.36 3.05Q48.36 3.17 48.26 3.17L48.26 3.17L45.12 3.17L45.14 16.85Q45.14 16.97 45.05 16.97L45.05 16.97ZM53.74 17.21L53.74 17.21Q52.44 17.21 51.37 16.55Q50.30 15.89 49.66 14.80Q49.01 13.70 49.01 12.38L49.01 12.38L49.03 4.78Q49.03 3.46 49.67 2.38Q50.30 1.30 51.38 0.65Q52.46 0 53.74 0L53.74 0Q55.03 0 56.09 0.65Q57.14 1.30 57.78 2.38Q58.42 3.46 58.42 4.78L58.42 4.78L58.44 12.38Q58.44 13.70 57.80 14.80Q57.17 15.89 56.10 16.55Q55.03 17.21 53.74 17.21ZM53.74 14.30L53.74 14.30Q54.46 14.30 55.00 13.72Q55.54 13.13 55.54 12.38L55.54 12.38L55.51 4.78Q55.51 3.98 55.01 3.43Q54.50 2.88 53.74 2.88L53.74 2.88Q52.99 2.88 52.46 3.42Q51.94 3.96 51.94 4.78L51.94 4.78L51.94 12.38Q51.94 13.18 52.46 13.74Q52.99 14.30 53.74 14.30ZM63.07 16.97L60.36 16.97Q60.26 16.97 60.26 16.85L60.26 16.85L60.31 0.36Q60.31 0.26 60.41 0.26L60.41 0.26L65.26 0.26Q66.55 0.26 67.64 0.90Q68.74 1.54 69.38 2.60Q70.03 3.67 70.03 5.02L70.03 5.02Q70.03 5.90 69.77 6.61Q69.50 7.32 69.14 7.81Q68.78 8.30 68.50 8.54L68.50 8.54Q69.79 9.98 69.79 11.93L69.79 11.93L69.82 16.85Q69.82 16.97 69.70 16.97L69.70 16.97L66.98 16.97Q66.89 16.97 66.89 16.90L66.89 16.90L66.89 11.93Q66.89 11.06 66.28 10.43Q65.66 9.79 64.78 9.79L64.78 9.79L63.19 9.79L63.17 16.85Q63.17 16.97 63.07 16.97L63.07 16.97ZM63.19 3.14L63.19 6.91L65.26 6.91Q66 6.91 66.58 6.36Q67.15 5.81 67.15 5.02L67.15 5.02Q67.15 4.25 66.59 3.70Q66.02 3.14 65.26 3.14L65.26 3.14L63.19 3.14Z" transform="translate(0, 52)"></path></svg>